<svg xmlns="http://www.w3.org/2000/svg" width="320" height="220" viewBox="0 0 320 220"><defs><pattern id="dots" width="7" height="7" patternUnits="userSpaceOnUse"><circle cx="1" cy="1" r=".6" fill="#263c32" opacity=".1"/></pattern></defs><rect width="320" height="220" fill="#cbd4c0"/><path d="M64 220v-79a96 96 0 0 1 192 0v79" fill="#e5e3c7"/><path d="M78 220v-77a82 82 0 0 1 164 0v77" fill="none" stroke="#263c32" stroke-opacity=".12"/><rect width="320" height="220" fill="url(#dots)"/><text x="267" y="74" fill="#263c32" opacity=".25" font-family="Georgia,serif" font-size="21" font-style="italic">NF</text><path d="m49 124 3 9 9 3-9 3-3 9-3-9-9-3 9-3Z" fill="#263c32" opacity=".25"/><path d="M121 96q-17-42 17-51 26-18 49 3 25 17 20 61l-3 85h-94Z" fill="#2d3b2f"/><path d="M94 220q8-49 48-62h38q39 13 45 62Z" fill="#497267"/><path d="M145 137v30q15 13 30 0v-30Z" fill="#c89675"/><path d="M128 90q-4 35 10 50 23 21 44-3 15-18 10-48l-35-20Z" fill="#c89675"/><path d="m136 110 9 0m29-1 9 1" stroke="#374135" stroke-width="2.4" fill="none" stroke-linecap="round"/><path d="m158 113-3 11 6 1" stroke="#85583f" stroke-width="1.4" fill="none"/><path d="m148 133q12 7 23-1" stroke="#8e5243" stroke-width="2.4" fill="none"/><path d="M145 166q12 15 31 0" stroke="#e6c98b" stroke-width="3" fill="none"/><path d="m183 163-51 57m58-50-47 50" stroke="#efcf91" stroke-width="2" stroke-opacity=".7"/><circle cx="130" cy="128" r="4" fill="#e6c98b"/><circle cx="189" cy="128" r="4" fill="#e6c98b"/><path d="M123 112q-13-33 16-54 31-13 53 11 17 23 6 39l-12-28q-27 17-47 4l-9 28Z" fill="#453e32"/><path d="M123 113q-12 25 2 34t-4 32m72-67q11 25-2 37t8 29" stroke="#453e32" stroke-width="14" fill="none"/><path d="M133 78q27-13 48-5" stroke="#786b4a" stroke-width="2" fill="none"/></svg>